M48
METRIC,TZ
T1C0.300
T2C1.000
T3C1.300
%
G90
G05
T1
X67.55Y-81.44
X67.55Y-83.44
X67.55Y-85.44
X67.55Y-87.44
X67.55Y-89.44
X67.55Y-91.44
X67.55Y-93.44
X67.55Y-95.44
X67.55Y-100.94
X67.55Y-102.94
X67.55Y-104.94
X68.95Y-85.14
X69.85Y-87.34
X70.05Y-81.94
X70.05Y-94.94
X71.75Y-86.14
X71.75Y-87.24
X71.95Y-88.74
X72.05Y-100.44
X73.05Y-96.44
X73.55Y-88.94
X74.05Y-81.94
X74.05Y-83.94
X74.3Y-91.29
X74.55Y-100.44
X75.55Y-85.14
X76.2Y-94.84
X76.45Y-87.34
X76.9Y-97.64
X77.05Y-81.94
X78.45Y-86.14
X78.45Y-87.24
X78.65Y-88.74
X79.05Y-101.94
X79.65Y-93.39
X80.55Y-88.94
X80.63Y-98.23
X81.05Y-104.44
X81.15Y-100.44
X81.25Y-86.14
X81.55Y-99.44
X81.85Y-101.14
X82.25Y-98.24
X82.35Y-78.44
X82.45Y-101.94
X82.95Y-90.34
X83.15Y-87.34
X83.25Y-95.94
X84.72Y-99.33
X84.72Y-100.63
X84.78Y-103.87
X84.85Y-91.14
X84.85Y-96.34
X85.05Y-86.14
X85.05Y-87.24
X85.05Y-89.44
X85.76Y-103.87
X85.85Y-95.84
X86.02Y-99.33
X86.02Y-100.63
X86.05Y-78.44
X86.05Y-80.94
X86.35Y-96.84
X86.65Y-91.14
X86.75Y-103.14
X87.05Y-82.44
X87.35Y-97.29
X87.85Y-89.24
X87.85Y-94.94
X87.95Y-98.14
X88.65Y-99.09
X89.05Y-104.94
X89.175Y-100.04
X90.05Y-100.64
X90.675Y-101.54
X91.35Y-103.34
X92.55Y-104.94
X95.55Y-104.94
X99.85Y-79.84
T2
X72.3Y-106.9
X72.31Y-79.04
X74.84Y-106.9
X74.85Y-79.04
X77.38Y-106.9
X77.39Y-79.04
X79.92Y-81.9
X79.92Y-106.9
X80.52Y-76.98
X82.46Y-106.9
X83.06Y-76.98
X85.Y-106.9
X87.54Y-106.9
X88.14Y-76.98
X90.08Y-106.9
X90.68Y-76.98
X92.62Y-106.9
X93.22Y-76.98
X95.16Y-81.9
X95.16Y-106.9
X95.76Y-76.98
X100.84Y-76.98
X103.38Y-76.98
T3
X68.44Y-98.04
X71.84Y-103.44
X76.44Y-92.64
T0
M30
