G04 #@! TF.FileFunction,Soldermask,Bot*
%FSLAX46Y46*%
G04 Gerber Fmt 4.6, Leading zero omitted, Abs format (unit mm)*
G04 Created by KiCad (PCBNEW 4.0.7-e2-6376~58~ubuntu16.04.1) date Mon Mar 19 16:28:18 2018*
%MOMM*%
%LPD*%
G01*
G04 APERTURE LIST*
%ADD10C,0.100000*%
%ADD11C,2.600000*%
%ADD12R,1.230000X0.700000*%
%ADD13R,1.250000X0.700000*%
%ADD14R,0.700000X1.230000*%
%ADD15R,0.700000X1.250000*%
%ADD16R,1.700000X1.700000*%
%ADD17O,2.100000X2.100000*%
%ADD18R,2.100000X2.100000*%
G04 APERTURE END LIST*
D10*
D11*
X76440000Y-92640000D03*
X71840000Y-103440000D03*
X68440000Y-98040000D03*
D12*
X83410000Y-101230000D03*
D13*
X83420000Y-100730000D03*
X83420000Y-100230000D03*
X83420000Y-99730000D03*
X83420000Y-99230000D03*
D12*
X83410000Y-98730000D03*
D14*
X84120000Y-98020000D03*
D15*
X84620000Y-98030000D03*
X85120000Y-98030000D03*
X85620000Y-98030000D03*
X86120000Y-98030000D03*
D14*
X86620000Y-98020000D03*
D12*
X87330000Y-98730000D03*
D13*
X87320000Y-99230000D03*
X87320000Y-99730000D03*
X87320000Y-100230000D03*
X87320000Y-100730000D03*
D12*
X87330000Y-101230000D03*
D14*
X86620000Y-101940000D03*
D15*
X86120000Y-101930000D03*
X85620000Y-101930000D03*
X85120000Y-101930000D03*
X84620000Y-101930000D03*
D14*
X84120000Y-101940000D03*
D16*
X86020000Y-99330000D03*
X86020000Y-100630000D03*
X84720000Y-99330000D03*
X84720000Y-100630000D03*
D17*
X79920000Y-81900000D03*
X95160000Y-81900000D03*
D18*
X80520000Y-76980000D03*
D17*
X83060000Y-76980000D03*
X88140000Y-76980000D03*
X90680000Y-76980000D03*
X93220000Y-76980000D03*
X95760000Y-76980000D03*
X100840000Y-76980000D03*
X103380000Y-76980000D03*
D18*
X72300000Y-106900000D03*
D17*
X74840000Y-106900000D03*
X77380000Y-106900000D03*
X79920000Y-106900000D03*
X82460000Y-106900000D03*
X85000000Y-106900000D03*
X87540000Y-106900000D03*
X90080000Y-106900000D03*
X92620000Y-106900000D03*
X95160000Y-106900000D03*
D18*
X72310000Y-79040000D03*
D17*
X74850000Y-79040000D03*
X77390000Y-79040000D03*
M02*
