G04 #@! TF.FileFunction,Legend,Top*
%FSLAX46Y46*%
G04 Gerber Fmt 4.6, Leading zero omitted, Abs format (unit mm)*
G04 Created by KiCad (PCBNEW 4.0.7-e2-6376~58~ubuntu16.04.1) date Mon Mar 19 16:28:18 2018*
%MOMM*%
%LPD*%
G01*
G04 APERTURE LIST*
%ADD10C,0.100000*%
%ADD11C,0.150000*%
%ADD12C,0.200000*%
%ADD13C,0.120000*%
G04 APERTURE END LIST*
D10*
D11*
X84050000Y-100140000D02*
X92550000Y-100140000D01*
D12*
X67492857Y-79625714D02*
X67664286Y-79682857D01*
X67950000Y-79682857D01*
X68064286Y-79625714D01*
X68121429Y-79568571D01*
X68178572Y-79454286D01*
X68178572Y-79340000D01*
X68121429Y-79225714D01*
X68064286Y-79168571D01*
X67950000Y-79111429D01*
X67721429Y-79054286D01*
X67607143Y-78997143D01*
X67550000Y-78940000D01*
X67492857Y-78825714D01*
X67492857Y-78711429D01*
X67550000Y-78597143D01*
X67607143Y-78540000D01*
X67721429Y-78482857D01*
X68007143Y-78482857D01*
X68178572Y-78540000D01*
X68692857Y-79682857D02*
X68692857Y-78482857D01*
X68978572Y-78482857D01*
X69150000Y-78540000D01*
X69264286Y-78654286D01*
X69321429Y-78768571D01*
X69378572Y-78997143D01*
X69378572Y-79168571D01*
X69321429Y-79397143D01*
X69264286Y-79511429D01*
X69150000Y-79625714D01*
X68978572Y-79682857D01*
X68692857Y-79682857D01*
X69835714Y-79340000D02*
X70407143Y-79340000D01*
X69721429Y-79682857D02*
X70121429Y-78482857D01*
X70521429Y-79682857D01*
D11*
X66440000Y-96040000D02*
X64940000Y-96040000D01*
X64940000Y-96040000D02*
X64940000Y-100040000D01*
X64940000Y-100040000D02*
X66440000Y-100040000D01*
X66440000Y-92340000D02*
X80540000Y-92340000D01*
X80540000Y-92340000D02*
X80540000Y-103740000D01*
X80540000Y-103740000D02*
X66440000Y-103740000D01*
X66440000Y-103740000D02*
X66440000Y-92340000D01*
D13*
X96490000Y-83230000D02*
X96490000Y-80570000D01*
X73570000Y-83230000D02*
X96490000Y-83230000D01*
X73570000Y-80570000D02*
X96490000Y-80570000D01*
X73570000Y-83230000D02*
X73570000Y-80570000D01*
X72300000Y-83230000D02*
X70970000Y-83230000D01*
X70970000Y-83230000D02*
X70970000Y-81900000D01*
X104710000Y-78310000D02*
X104710000Y-75650000D01*
X81790000Y-78310000D02*
X104710000Y-78310000D01*
X81790000Y-75650000D02*
X104710000Y-75650000D01*
X81790000Y-78310000D02*
X81790000Y-75650000D01*
X80520000Y-78310000D02*
X79190000Y-78310000D01*
X79190000Y-78310000D02*
X79190000Y-76980000D01*
X96490000Y-108230000D02*
X96490000Y-105570000D01*
X73570000Y-108230000D02*
X96490000Y-108230000D01*
X73570000Y-105570000D02*
X96490000Y-105570000D01*
X73570000Y-108230000D02*
X73570000Y-105570000D01*
X72300000Y-108230000D02*
X70970000Y-108230000D01*
X70970000Y-108230000D02*
X70970000Y-106900000D01*
X87330000Y-93140000D02*
X87330000Y-94140000D01*
X85970000Y-94140000D02*
X85970000Y-93140000D01*
X84170000Y-94140000D02*
X84170000Y-93140000D01*
X85530000Y-93140000D02*
X85530000Y-94140000D01*
X88450000Y-102660000D02*
X89450000Y-102660000D01*
X89450000Y-104020000D02*
X88450000Y-104020000D01*
X83630000Y-93140000D02*
X83630000Y-94140000D01*
X82270000Y-94140000D02*
X82270000Y-93140000D01*
X74890000Y-86340000D02*
X74890000Y-88140000D01*
X78110000Y-88140000D02*
X78110000Y-85690000D01*
X81545000Y-86340000D02*
X81545000Y-88140000D01*
X84765000Y-88140000D02*
X84765000Y-85690000D01*
X68250000Y-86340000D02*
X68250000Y-88140000D01*
X71470000Y-88140000D02*
X71470000Y-85690000D01*
X83020000Y-81340000D02*
X83020000Y-80340000D01*
X84380000Y-80340000D02*
X84380000Y-81340000D01*
X89330000Y-80330000D02*
X89330000Y-81330000D01*
X87970000Y-81330000D02*
X87970000Y-80330000D01*
X91355000Y-80330000D02*
X91355000Y-81330000D01*
X89995000Y-81330000D02*
X89995000Y-80330000D01*
X93355000Y-80330000D02*
X93355000Y-81330000D01*
X91995000Y-81330000D02*
X91995000Y-80330000D01*
X95805000Y-85190000D02*
X95805000Y-86190000D01*
X94445000Y-86190000D02*
X94445000Y-85190000D01*
X102775000Y-80470000D02*
X101775000Y-80470000D01*
X101775000Y-79110000D02*
X102775000Y-79110000D01*
X78720000Y-80370000D02*
X78720000Y-77710000D01*
X73580000Y-80370000D02*
X78720000Y-80370000D01*
X73580000Y-77710000D02*
X78720000Y-77710000D01*
X73580000Y-80370000D02*
X73580000Y-77710000D01*
X72310000Y-80370000D02*
X70980000Y-80370000D01*
X70980000Y-80370000D02*
X70980000Y-79040000D01*
X81270000Y-81340000D02*
X81270000Y-80340000D01*
X82630000Y-80340000D02*
X82630000Y-81340000D01*
D11*
X78440477Y-77892381D02*
X78440477Y-78606667D01*
X78392857Y-78749524D01*
X78297619Y-78844762D01*
X78154762Y-78892381D01*
X78059524Y-78892381D01*
X79440477Y-78892381D02*
X78869048Y-78892381D01*
X79154762Y-78892381D02*
X79154762Y-77892381D01*
X79059524Y-78035238D01*
X78964286Y-78130476D01*
X78869048Y-78178095D01*
X80297620Y-77892381D02*
X80107143Y-77892381D01*
X80011905Y-77940000D01*
X79964286Y-77987619D01*
X79869048Y-78130476D01*
X79821429Y-78320952D01*
X79821429Y-78701905D01*
X79869048Y-78797143D01*
X79916667Y-78844762D01*
X80011905Y-78892381D01*
X80202382Y-78892381D01*
X80297620Y-78844762D01*
X80345239Y-78797143D01*
X80392858Y-78701905D01*
X80392858Y-78463810D01*
X80345239Y-78368571D01*
X80297620Y-78320952D01*
X80202382Y-78273333D01*
X80011905Y-78273333D01*
X79916667Y-78320952D01*
X79869048Y-78368571D01*
X79821429Y-78463810D01*
D12*
X87207143Y-97606666D02*
X87254762Y-97654285D01*
X87302381Y-97797142D01*
X87302381Y-97892380D01*
X87254762Y-98035238D01*
X87159524Y-98130476D01*
X87064286Y-98178095D01*
X86873810Y-98225714D01*
X86730952Y-98225714D01*
X86540476Y-98178095D01*
X86445238Y-98130476D01*
X86350000Y-98035238D01*
X86302381Y-97892380D01*
X86302381Y-97797142D01*
X86350000Y-97654285D01*
X86397619Y-97606666D01*
X86635714Y-96749523D02*
X87302381Y-96749523D01*
X86254762Y-96987619D02*
X86969048Y-97225714D01*
X86969048Y-96606666D01*
X87607143Y-101606666D02*
X87654762Y-101654285D01*
X87702381Y-101797142D01*
X87702381Y-101892380D01*
X87654762Y-102035238D01*
X87559524Y-102130476D01*
X87464286Y-102178095D01*
X87273810Y-102225714D01*
X87130952Y-102225714D01*
X86940476Y-102178095D01*
X86845238Y-102130476D01*
X86750000Y-102035238D01*
X86702381Y-101892380D01*
X86702381Y-101797142D01*
X86750000Y-101654285D01*
X86797619Y-101606666D01*
X86702381Y-100701904D02*
X86702381Y-101178095D01*
X87178571Y-101225714D01*
X87130952Y-101178095D01*
X87083333Y-101082857D01*
X87083333Y-100844761D01*
X87130952Y-100749523D01*
X87178571Y-100701904D01*
X87273810Y-100654285D01*
X87511905Y-100654285D01*
X87607143Y-100701904D01*
X87654762Y-100749523D01*
X87702381Y-100844761D01*
X87702381Y-101082857D01*
X87654762Y-101178095D01*
X87607143Y-101225714D01*
X93883334Y-98997143D02*
X93835715Y-99044762D01*
X93692858Y-99092381D01*
X93597620Y-99092381D01*
X93454762Y-99044762D01*
X93359524Y-98949524D01*
X93311905Y-98854286D01*
X93264286Y-98663810D01*
X93264286Y-98520952D01*
X93311905Y-98330476D01*
X93359524Y-98235238D01*
X93454762Y-98140000D01*
X93597620Y-98092381D01*
X93692858Y-98092381D01*
X93835715Y-98140000D01*
X93883334Y-98187619D01*
X94740477Y-98092381D02*
X94550000Y-98092381D01*
X94454762Y-98140000D01*
X94407143Y-98187619D01*
X94311905Y-98330476D01*
X94264286Y-98520952D01*
X94264286Y-98901905D01*
X94311905Y-98997143D01*
X94359524Y-99044762D01*
X94454762Y-99092381D01*
X94645239Y-99092381D01*
X94740477Y-99044762D01*
X94788096Y-98997143D01*
X94835715Y-98901905D01*
X94835715Y-98663810D01*
X94788096Y-98568571D01*
X94740477Y-98520952D01*
X94645239Y-98473333D01*
X94454762Y-98473333D01*
X94359524Y-98520952D01*
X94311905Y-98568571D01*
X94264286Y-98663810D01*
X93583334Y-100497143D02*
X93535715Y-100544762D01*
X93392858Y-100592381D01*
X93297620Y-100592381D01*
X93154762Y-100544762D01*
X93059524Y-100449524D01*
X93011905Y-100354286D01*
X92964286Y-100163810D01*
X92964286Y-100020952D01*
X93011905Y-99830476D01*
X93059524Y-99735238D01*
X93154762Y-99640000D01*
X93297620Y-99592381D01*
X93392858Y-99592381D01*
X93535715Y-99640000D01*
X93583334Y-99687619D01*
X93916667Y-99592381D02*
X94583334Y-99592381D01*
X94154762Y-100592381D01*
X93883334Y-101997143D02*
X93835715Y-102044762D01*
X93692858Y-102092381D01*
X93597620Y-102092381D01*
X93454762Y-102044762D01*
X93359524Y-101949524D01*
X93311905Y-101854286D01*
X93264286Y-101663810D01*
X93264286Y-101520952D01*
X93311905Y-101330476D01*
X93359524Y-101235238D01*
X93454762Y-101140000D01*
X93597620Y-101092381D01*
X93692858Y-101092381D01*
X93835715Y-101140000D01*
X93883334Y-101187619D01*
X94454762Y-101520952D02*
X94359524Y-101473333D01*
X94311905Y-101425714D01*
X94264286Y-101330476D01*
X94264286Y-101282857D01*
X94311905Y-101187619D01*
X94359524Y-101140000D01*
X94454762Y-101092381D01*
X94645239Y-101092381D01*
X94740477Y-101140000D01*
X94788096Y-101187619D01*
X94835715Y-101282857D01*
X94835715Y-101330476D01*
X94788096Y-101425714D01*
X94740477Y-101473333D01*
X94645239Y-101520952D01*
X94454762Y-101520952D01*
X94359524Y-101568571D01*
X94311905Y-101616190D01*
X94264286Y-101711429D01*
X94264286Y-101901905D01*
X94311905Y-101997143D01*
X94359524Y-102044762D01*
X94454762Y-102092381D01*
X94645239Y-102092381D01*
X94740477Y-102044762D01*
X94788096Y-101997143D01*
X94835715Y-101901905D01*
X94835715Y-101711429D01*
X94788096Y-101616190D01*
X94740477Y-101568571D01*
X94645239Y-101520952D01*
X83683334Y-103397143D02*
X83635715Y-103444762D01*
X83492858Y-103492381D01*
X83397620Y-103492381D01*
X83254762Y-103444762D01*
X83159524Y-103349524D01*
X83111905Y-103254286D01*
X83064286Y-103063810D01*
X83064286Y-102920952D01*
X83111905Y-102730476D01*
X83159524Y-102635238D01*
X83254762Y-102540000D01*
X83397620Y-102492381D01*
X83492858Y-102492381D01*
X83635715Y-102540000D01*
X83683334Y-102587619D01*
X84159524Y-103492381D02*
X84350000Y-103492381D01*
X84445239Y-103444762D01*
X84492858Y-103397143D01*
X84588096Y-103254286D01*
X84635715Y-103063810D01*
X84635715Y-102682857D01*
X84588096Y-102587619D01*
X84540477Y-102540000D01*
X84445239Y-102492381D01*
X84254762Y-102492381D01*
X84159524Y-102540000D01*
X84111905Y-102587619D01*
X84064286Y-102682857D01*
X84064286Y-102920952D01*
X84111905Y-103016190D01*
X84159524Y-103063810D01*
X84254762Y-103111429D01*
X84445239Y-103111429D01*
X84540477Y-103063810D01*
X84588096Y-103016190D01*
X84635715Y-102920952D01*
X82907143Y-97597143D02*
X82859524Y-97644762D01*
X82716667Y-97692381D01*
X82621429Y-97692381D01*
X82478571Y-97644762D01*
X82383333Y-97549524D01*
X82335714Y-97454286D01*
X82288095Y-97263810D01*
X82288095Y-97120952D01*
X82335714Y-96930476D01*
X82383333Y-96835238D01*
X82478571Y-96740000D01*
X82621429Y-96692381D01*
X82716667Y-96692381D01*
X82859524Y-96740000D01*
X82907143Y-96787619D01*
X83859524Y-97692381D02*
X83288095Y-97692381D01*
X83573809Y-97692381D02*
X83573809Y-96692381D01*
X83478571Y-96835238D01*
X83383333Y-96930476D01*
X83288095Y-96978095D01*
X84478571Y-96692381D02*
X84573810Y-96692381D01*
X84669048Y-96740000D01*
X84716667Y-96787619D01*
X84764286Y-96882857D01*
X84811905Y-97073333D01*
X84811905Y-97311429D01*
X84764286Y-97501905D01*
X84716667Y-97597143D01*
X84669048Y-97644762D01*
X84573810Y-97692381D01*
X84478571Y-97692381D01*
X84383333Y-97644762D01*
X84335714Y-97597143D01*
X84288095Y-97501905D01*
X84240476Y-97311429D01*
X84240476Y-97073333D01*
X84288095Y-96882857D01*
X84335714Y-96787619D01*
X84383333Y-96740000D01*
X84478571Y-96692381D01*
D11*
X88802381Y-93806666D02*
X88326190Y-94140000D01*
X88802381Y-94378095D02*
X87802381Y-94378095D01*
X87802381Y-93997142D01*
X87850000Y-93901904D01*
X87897619Y-93854285D01*
X87992857Y-93806666D01*
X88135714Y-93806666D01*
X88230952Y-93854285D01*
X88278571Y-93901904D01*
X88326190Y-93997142D01*
X88326190Y-94378095D01*
X88802381Y-92854285D02*
X88802381Y-93425714D01*
X88802381Y-93140000D02*
X87802381Y-93140000D01*
X87945238Y-93235238D01*
X88040476Y-93330476D01*
X88088095Y-93425714D01*
D12*
X86402381Y-91006666D02*
X85926190Y-91340000D01*
X86402381Y-91578095D02*
X85402381Y-91578095D01*
X85402381Y-91197142D01*
X85450000Y-91101904D01*
X85497619Y-91054285D01*
X85592857Y-91006666D01*
X85735714Y-91006666D01*
X85830952Y-91054285D01*
X85878571Y-91101904D01*
X85926190Y-91197142D01*
X85926190Y-91578095D01*
X85497619Y-90625714D02*
X85450000Y-90578095D01*
X85402381Y-90482857D01*
X85402381Y-90244761D01*
X85450000Y-90149523D01*
X85497619Y-90101904D01*
X85592857Y-90054285D01*
X85688095Y-90054285D01*
X85830952Y-90101904D01*
X86402381Y-90673333D01*
X86402381Y-90054285D01*
X88783334Y-105292381D02*
X88450000Y-104816190D01*
X88211905Y-105292381D02*
X88211905Y-104292381D01*
X88592858Y-104292381D01*
X88688096Y-104340000D01*
X88735715Y-104387619D01*
X88783334Y-104482857D01*
X88783334Y-104625714D01*
X88735715Y-104720952D01*
X88688096Y-104768571D01*
X88592858Y-104816190D01*
X88211905Y-104816190D01*
X89116667Y-104292381D02*
X89735715Y-104292381D01*
X89402381Y-104673333D01*
X89545239Y-104673333D01*
X89640477Y-104720952D01*
X89688096Y-104768571D01*
X89735715Y-104863810D01*
X89735715Y-105101905D01*
X89688096Y-105197143D01*
X89640477Y-105244762D01*
X89545239Y-105292381D01*
X89259524Y-105292381D01*
X89164286Y-105244762D01*
X89116667Y-105197143D01*
D11*
X81952381Y-93806666D02*
X81476190Y-94140000D01*
X81952381Y-94378095D02*
X80952381Y-94378095D01*
X80952381Y-93997142D01*
X81000000Y-93901904D01*
X81047619Y-93854285D01*
X81142857Y-93806666D01*
X81285714Y-93806666D01*
X81380952Y-93854285D01*
X81428571Y-93901904D01*
X81476190Y-93997142D01*
X81476190Y-94378095D01*
X81285714Y-92949523D02*
X81952381Y-92949523D01*
X80904762Y-93187619D02*
X81619048Y-93425714D01*
X81619048Y-92806666D01*
D12*
X80907143Y-87332857D02*
X80954762Y-87380476D01*
X81002381Y-87523333D01*
X81002381Y-87618571D01*
X80954762Y-87761429D01*
X80859524Y-87856667D01*
X80764286Y-87904286D01*
X80573810Y-87951905D01*
X80430952Y-87951905D01*
X80240476Y-87904286D01*
X80145238Y-87856667D01*
X80050000Y-87761429D01*
X80002381Y-87618571D01*
X80002381Y-87523333D01*
X80050000Y-87380476D01*
X80097619Y-87332857D01*
X81002381Y-86380476D02*
X81002381Y-86951905D01*
X81002381Y-86666191D02*
X80002381Y-86666191D01*
X80145238Y-86761429D01*
X80240476Y-86856667D01*
X80288095Y-86951905D01*
X81002381Y-85428095D02*
X81002381Y-85999524D01*
X81002381Y-85713810D02*
X80002381Y-85713810D01*
X80145238Y-85809048D01*
X80240476Y-85904286D01*
X80288095Y-85999524D01*
X87477143Y-87332857D02*
X87524762Y-87380476D01*
X87572381Y-87523333D01*
X87572381Y-87618571D01*
X87524762Y-87761429D01*
X87429524Y-87856667D01*
X87334286Y-87904286D01*
X87143810Y-87951905D01*
X87000952Y-87951905D01*
X86810476Y-87904286D01*
X86715238Y-87856667D01*
X86620000Y-87761429D01*
X86572381Y-87618571D01*
X86572381Y-87523333D01*
X86620000Y-87380476D01*
X86667619Y-87332857D01*
X87572381Y-86380476D02*
X87572381Y-86951905D01*
X87572381Y-86666191D02*
X86572381Y-86666191D01*
X86715238Y-86761429D01*
X86810476Y-86856667D01*
X86858095Y-86951905D01*
X86667619Y-85999524D02*
X86620000Y-85951905D01*
X86572381Y-85856667D01*
X86572381Y-85618571D01*
X86620000Y-85523333D01*
X86667619Y-85475714D01*
X86762857Y-85428095D01*
X86858095Y-85428095D01*
X87000952Y-85475714D01*
X87572381Y-86047143D01*
X87572381Y-85428095D01*
X74177143Y-87332857D02*
X74224762Y-87380476D01*
X74272381Y-87523333D01*
X74272381Y-87618571D01*
X74224762Y-87761429D01*
X74129524Y-87856667D01*
X74034286Y-87904286D01*
X73843810Y-87951905D01*
X73700952Y-87951905D01*
X73510476Y-87904286D01*
X73415238Y-87856667D01*
X73320000Y-87761429D01*
X73272381Y-87618571D01*
X73272381Y-87523333D01*
X73320000Y-87380476D01*
X73367619Y-87332857D01*
X74272381Y-86380476D02*
X74272381Y-86951905D01*
X74272381Y-86666191D02*
X73272381Y-86666191D01*
X73415238Y-86761429D01*
X73510476Y-86856667D01*
X73558095Y-86951905D01*
X73272381Y-86047143D02*
X73272381Y-85428095D01*
X73653333Y-85761429D01*
X73653333Y-85618571D01*
X73700952Y-85523333D01*
X73748571Y-85475714D01*
X73843810Y-85428095D01*
X74081905Y-85428095D01*
X74177143Y-85475714D01*
X74224762Y-85523333D01*
X74272381Y-85618571D01*
X74272381Y-85904286D01*
X74224762Y-85999524D01*
X74177143Y-86047143D01*
X77407143Y-90997143D02*
X77359524Y-91044762D01*
X77216667Y-91092381D01*
X77121429Y-91092381D01*
X76978571Y-91044762D01*
X76883333Y-90949524D01*
X76835714Y-90854286D01*
X76788095Y-90663810D01*
X76788095Y-90520952D01*
X76835714Y-90330476D01*
X76883333Y-90235238D01*
X76978571Y-90140000D01*
X77121429Y-90092381D01*
X77216667Y-90092381D01*
X77359524Y-90140000D01*
X77407143Y-90187619D01*
X78359524Y-91092381D02*
X77788095Y-91092381D01*
X78073809Y-91092381D02*
X78073809Y-90092381D01*
X77978571Y-90235238D01*
X77883333Y-90330476D01*
X77788095Y-90378095D01*
X79216667Y-90425714D02*
X79216667Y-91092381D01*
X78978571Y-90044762D02*
X78740476Y-90759048D01*
X79359524Y-90759048D01*
X82907143Y-90997143D02*
X82859524Y-91044762D01*
X82716667Y-91092381D01*
X82621429Y-91092381D01*
X82478571Y-91044762D01*
X82383333Y-90949524D01*
X82335714Y-90854286D01*
X82288095Y-90663810D01*
X82288095Y-90520952D01*
X82335714Y-90330476D01*
X82383333Y-90235238D01*
X82478571Y-90140000D01*
X82621429Y-90092381D01*
X82716667Y-90092381D01*
X82859524Y-90140000D01*
X82907143Y-90187619D01*
X83859524Y-91092381D02*
X83288095Y-91092381D01*
X83573809Y-91092381D02*
X83573809Y-90092381D01*
X83478571Y-90235238D01*
X83383333Y-90330476D01*
X83288095Y-90378095D01*
X84764286Y-90092381D02*
X84288095Y-90092381D01*
X84240476Y-90568571D01*
X84288095Y-90520952D01*
X84383333Y-90473333D01*
X84621429Y-90473333D01*
X84716667Y-90520952D01*
X84764286Y-90568571D01*
X84811905Y-90663810D01*
X84811905Y-90901905D01*
X84764286Y-90997143D01*
X84716667Y-91044762D01*
X84621429Y-91092381D01*
X84383333Y-91092381D01*
X84288095Y-91044762D01*
X84240476Y-90997143D01*
X70707143Y-91022143D02*
X70659524Y-91069762D01*
X70516667Y-91117381D01*
X70421429Y-91117381D01*
X70278571Y-91069762D01*
X70183333Y-90974524D01*
X70135714Y-90879286D01*
X70088095Y-90688810D01*
X70088095Y-90545952D01*
X70135714Y-90355476D01*
X70183333Y-90260238D01*
X70278571Y-90165000D01*
X70421429Y-90117381D01*
X70516667Y-90117381D01*
X70659524Y-90165000D01*
X70707143Y-90212619D01*
X71659524Y-91117381D02*
X71088095Y-91117381D01*
X71373809Y-91117381D02*
X71373809Y-90117381D01*
X71278571Y-90260238D01*
X71183333Y-90355476D01*
X71088095Y-90403095D01*
X72516667Y-90117381D02*
X72326190Y-90117381D01*
X72230952Y-90165000D01*
X72183333Y-90212619D01*
X72088095Y-90355476D01*
X72040476Y-90545952D01*
X72040476Y-90926905D01*
X72088095Y-91022143D01*
X72135714Y-91069762D01*
X72230952Y-91117381D01*
X72421429Y-91117381D01*
X72516667Y-91069762D01*
X72564286Y-91022143D01*
X72611905Y-90926905D01*
X72611905Y-90688810D01*
X72564286Y-90593571D01*
X72516667Y-90545952D01*
X72421429Y-90498333D01*
X72230952Y-90498333D01*
X72135714Y-90545952D01*
X72088095Y-90593571D01*
X72040476Y-90688810D01*
X76388095Y-83867381D02*
X76388095Y-84676905D01*
X76435714Y-84772143D01*
X76483333Y-84819762D01*
X76578571Y-84867381D01*
X76769048Y-84867381D01*
X76864286Y-84819762D01*
X76911905Y-84772143D01*
X76959524Y-84676905D01*
X76959524Y-83867381D01*
X77388095Y-83962619D02*
X77435714Y-83915000D01*
X77530952Y-83867381D01*
X77769048Y-83867381D01*
X77864286Y-83915000D01*
X77911905Y-83962619D01*
X77959524Y-84057857D01*
X77959524Y-84153095D01*
X77911905Y-84295952D01*
X77340476Y-84867381D01*
X77959524Y-84867381D01*
X82788095Y-83867381D02*
X82788095Y-84676905D01*
X82835714Y-84772143D01*
X82883333Y-84819762D01*
X82978571Y-84867381D01*
X83169048Y-84867381D01*
X83264286Y-84819762D01*
X83311905Y-84772143D01*
X83359524Y-84676905D01*
X83359524Y-83867381D01*
X83740476Y-83867381D02*
X84359524Y-83867381D01*
X84026190Y-84248333D01*
X84169048Y-84248333D01*
X84264286Y-84295952D01*
X84311905Y-84343571D01*
X84359524Y-84438810D01*
X84359524Y-84676905D01*
X84311905Y-84772143D01*
X84264286Y-84819762D01*
X84169048Y-84867381D01*
X83883333Y-84867381D01*
X83788095Y-84819762D01*
X83740476Y-84772143D01*
X69688095Y-83892381D02*
X69688095Y-84701905D01*
X69735714Y-84797143D01*
X69783333Y-84844762D01*
X69878571Y-84892381D01*
X70069048Y-84892381D01*
X70164286Y-84844762D01*
X70211905Y-84797143D01*
X70259524Y-84701905D01*
X70259524Y-83892381D01*
X71164286Y-84225714D02*
X71164286Y-84892381D01*
X70926190Y-83844762D02*
X70688095Y-84559048D01*
X71307143Y-84559048D01*
X85702381Y-79606666D02*
X85226190Y-79940000D01*
X85702381Y-80178095D02*
X84702381Y-80178095D01*
X84702381Y-79797142D01*
X84750000Y-79701904D01*
X84797619Y-79654285D01*
X84892857Y-79606666D01*
X85035714Y-79606666D01*
X85130952Y-79654285D01*
X85178571Y-79701904D01*
X85226190Y-79797142D01*
X85226190Y-80178095D01*
X84702381Y-78749523D02*
X84702381Y-78940000D01*
X84750000Y-79035238D01*
X84797619Y-79082857D01*
X84940476Y-79178095D01*
X85130952Y-79225714D01*
X85511905Y-79225714D01*
X85607143Y-79178095D01*
X85654762Y-79130476D01*
X85702381Y-79035238D01*
X85702381Y-78844761D01*
X85654762Y-78749523D01*
X85607143Y-78701904D01*
X85511905Y-78654285D01*
X85273810Y-78654285D01*
X85178571Y-78701904D01*
X85130952Y-78749523D01*
X85083333Y-78844761D01*
X85083333Y-79035238D01*
X85130952Y-79130476D01*
X85178571Y-79178095D01*
X85273810Y-79225714D01*
D11*
X87602381Y-79606666D02*
X87126190Y-79940000D01*
X87602381Y-80178095D02*
X86602381Y-80178095D01*
X86602381Y-79797142D01*
X86650000Y-79701904D01*
X86697619Y-79654285D01*
X86792857Y-79606666D01*
X86935714Y-79606666D01*
X87030952Y-79654285D01*
X87078571Y-79701904D01*
X87126190Y-79797142D01*
X87126190Y-80178095D01*
X86602381Y-79273333D02*
X86602381Y-78606666D01*
X87602381Y-79035238D01*
X91102381Y-84606666D02*
X90626190Y-84940000D01*
X91102381Y-85178095D02*
X90102381Y-85178095D01*
X90102381Y-84797142D01*
X90150000Y-84701904D01*
X90197619Y-84654285D01*
X90292857Y-84606666D01*
X90435714Y-84606666D01*
X90530952Y-84654285D01*
X90578571Y-84701904D01*
X90626190Y-84797142D01*
X90626190Y-85178095D01*
X90530952Y-84035238D02*
X90483333Y-84130476D01*
X90435714Y-84178095D01*
X90340476Y-84225714D01*
X90292857Y-84225714D01*
X90197619Y-84178095D01*
X90150000Y-84130476D01*
X90102381Y-84035238D01*
X90102381Y-83844761D01*
X90150000Y-83749523D01*
X90197619Y-83701904D01*
X90292857Y-83654285D01*
X90340476Y-83654285D01*
X90435714Y-83701904D01*
X90483333Y-83749523D01*
X90530952Y-83844761D01*
X90530952Y-84035238D01*
X90578571Y-84130476D01*
X90626190Y-84178095D01*
X90721429Y-84225714D01*
X90911905Y-84225714D01*
X91007143Y-84178095D01*
X91054762Y-84130476D01*
X91102381Y-84035238D01*
X91102381Y-83844761D01*
X91054762Y-83749523D01*
X91007143Y-83701904D01*
X90911905Y-83654285D01*
X90721429Y-83654285D01*
X90626190Y-83701904D01*
X90578571Y-83749523D01*
X90530952Y-83844761D01*
D12*
X94802381Y-79506666D02*
X94326190Y-79840000D01*
X94802381Y-80078095D02*
X93802381Y-80078095D01*
X93802381Y-79697142D01*
X93850000Y-79601904D01*
X93897619Y-79554285D01*
X93992857Y-79506666D01*
X94135714Y-79506666D01*
X94230952Y-79554285D01*
X94278571Y-79601904D01*
X94326190Y-79697142D01*
X94326190Y-80078095D01*
X94802381Y-79030476D02*
X94802381Y-78840000D01*
X94754762Y-78744761D01*
X94707143Y-78697142D01*
X94564286Y-78601904D01*
X94373810Y-78554285D01*
X93992857Y-78554285D01*
X93897619Y-78601904D01*
X93850000Y-78649523D01*
X93802381Y-78744761D01*
X93802381Y-78935238D01*
X93850000Y-79030476D01*
X93897619Y-79078095D01*
X93992857Y-79125714D01*
X94230952Y-79125714D01*
X94326190Y-79078095D01*
X94373810Y-79030476D01*
X94421429Y-78935238D01*
X94421429Y-78744761D01*
X94373810Y-78649523D01*
X94326190Y-78601904D01*
X94230952Y-78554285D01*
X97402381Y-86382857D02*
X96926190Y-86716191D01*
X97402381Y-86954286D02*
X96402381Y-86954286D01*
X96402381Y-86573333D01*
X96450000Y-86478095D01*
X96497619Y-86430476D01*
X96592857Y-86382857D01*
X96735714Y-86382857D01*
X96830952Y-86430476D01*
X96878571Y-86478095D01*
X96926190Y-86573333D01*
X96926190Y-86954286D01*
X97402381Y-85430476D02*
X97402381Y-86001905D01*
X97402381Y-85716191D02*
X96402381Y-85716191D01*
X96545238Y-85811429D01*
X96640476Y-85906667D01*
X96688095Y-86001905D01*
X96402381Y-84811429D02*
X96402381Y-84716190D01*
X96450000Y-84620952D01*
X96497619Y-84573333D01*
X96592857Y-84525714D01*
X96783333Y-84478095D01*
X97021429Y-84478095D01*
X97211905Y-84525714D01*
X97307143Y-84573333D01*
X97354762Y-84620952D01*
X97402381Y-84716190D01*
X97402381Y-84811429D01*
X97354762Y-84906667D01*
X97307143Y-84954286D01*
X97211905Y-85001905D01*
X97021429Y-85049524D01*
X96783333Y-85049524D01*
X96592857Y-85001905D01*
X96497619Y-84954286D01*
X96450000Y-84906667D01*
X96402381Y-84811429D01*
X97307143Y-80192381D02*
X96973809Y-79716190D01*
X96735714Y-80192381D02*
X96735714Y-79192381D01*
X97116667Y-79192381D01*
X97211905Y-79240000D01*
X97259524Y-79287619D01*
X97307143Y-79382857D01*
X97307143Y-79525714D01*
X97259524Y-79620952D01*
X97211905Y-79668571D01*
X97116667Y-79716190D01*
X96735714Y-79716190D01*
X98259524Y-80192381D02*
X97688095Y-80192381D01*
X97973809Y-80192381D02*
X97973809Y-79192381D01*
X97878571Y-79335238D01*
X97783333Y-79430476D01*
X97688095Y-79478095D01*
X99211905Y-80192381D02*
X98640476Y-80192381D01*
X98926190Y-80192381D02*
X98926190Y-79192381D01*
X98830952Y-79335238D01*
X98735714Y-79430476D01*
X98640476Y-79478095D01*
D11*
X80802381Y-79656666D02*
X80326190Y-79990000D01*
X80802381Y-80228095D02*
X79802381Y-80228095D01*
X79802381Y-79847142D01*
X79850000Y-79751904D01*
X79897619Y-79704285D01*
X79992857Y-79656666D01*
X80135714Y-79656666D01*
X80230952Y-79704285D01*
X80278571Y-79751904D01*
X80326190Y-79847142D01*
X80326190Y-80228095D01*
X79802381Y-78751904D02*
X79802381Y-79228095D01*
X80278571Y-79275714D01*
X80230952Y-79228095D01*
X80183333Y-79132857D01*
X80183333Y-78894761D01*
X80230952Y-78799523D01*
X80278571Y-78751904D01*
X80373810Y-78704285D01*
X80611905Y-78704285D01*
X80707143Y-78751904D01*
X80754762Y-78799523D01*
X80802381Y-78894761D01*
X80802381Y-79132857D01*
X80754762Y-79228095D01*
X80707143Y-79275714D01*
M02*
