G04 #@! TF.FileFunction,Copper,L2,Bot,Signal*
%FSLAX46Y46*%
G04 Gerber Fmt 4.6, Leading zero omitted, Abs format (unit mm)*
G04 Created by KiCad (PCBNEW 4.0.7-e2-6376~58~ubuntu16.04.1) date Mon Mar 19 16:28:18 2018*
%MOMM*%
%LPD*%
G01*
G04 APERTURE LIST*
%ADD10C,0.100000*%
%ADD11C,2.200000*%
%ADD12R,0.830000X0.300000*%
%ADD13R,0.850000X0.300000*%
%ADD14R,0.300000X0.830000*%
%ADD15R,0.300000X0.850000*%
%ADD16R,1.300000X1.300000*%
%ADD17O,1.700000X1.700000*%
%ADD18R,1.700000X1.700000*%
%ADD19C,0.700000*%
%ADD20C,0.300000*%
%ADD21C,0.180000*%
%ADD22C,0.200000*%
%ADD23C,0.254000*%
G04 APERTURE END LIST*
D10*
D11*
X76440000Y-92640000D03*
X71840000Y-103440000D03*
X68440000Y-98040000D03*
D12*
X83410000Y-101230000D03*
D13*
X83420000Y-100730000D03*
X83420000Y-100230000D03*
X83420000Y-99730000D03*
X83420000Y-99230000D03*
D12*
X83410000Y-98730000D03*
D14*
X84120000Y-98020000D03*
D15*
X84620000Y-98030000D03*
X85120000Y-98030000D03*
X85620000Y-98030000D03*
X86120000Y-98030000D03*
D14*
X86620000Y-98020000D03*
D12*
X87330000Y-98730000D03*
D13*
X87320000Y-99230000D03*
X87320000Y-99730000D03*
X87320000Y-100230000D03*
X87320000Y-100730000D03*
D12*
X87330000Y-101230000D03*
D14*
X86620000Y-101940000D03*
D15*
X86120000Y-101930000D03*
X85620000Y-101930000D03*
X85120000Y-101930000D03*
X84620000Y-101930000D03*
D14*
X84120000Y-101940000D03*
D16*
X86020000Y-99330000D03*
X86020000Y-100630000D03*
X84720000Y-99330000D03*
X84720000Y-100630000D03*
D17*
X79920000Y-81900000D03*
X95160000Y-81900000D03*
D18*
X80520000Y-76980000D03*
D17*
X83060000Y-76980000D03*
X88140000Y-76980000D03*
X90680000Y-76980000D03*
X93220000Y-76980000D03*
X95760000Y-76980000D03*
X100840000Y-76980000D03*
X103380000Y-76980000D03*
D18*
X72300000Y-106900000D03*
D17*
X74840000Y-106900000D03*
X77380000Y-106900000D03*
X79920000Y-106900000D03*
X82460000Y-106900000D03*
X85000000Y-106900000D03*
X87540000Y-106900000D03*
X90080000Y-106900000D03*
X92620000Y-106900000D03*
X95160000Y-106900000D03*
D18*
X72310000Y-79040000D03*
D17*
X74850000Y-79040000D03*
X77390000Y-79040000D03*
D19*
X74300000Y-91290000D03*
X79650000Y-93390000D03*
X76200000Y-94840000D03*
X76900000Y-97640000D03*
X80630000Y-98230000D03*
X87350000Y-97290000D03*
X95550000Y-104940000D03*
X92550000Y-104940000D03*
X87050000Y-82440000D03*
X86050000Y-80940000D03*
X86050000Y-78440000D03*
X74050000Y-83940000D03*
X89050000Y-104940000D03*
X81050000Y-104440000D03*
X70050000Y-81940000D03*
X74050000Y-81940000D03*
X77050000Y-81940000D03*
X80550000Y-88940000D03*
X73550000Y-88940000D03*
X79050000Y-101940000D03*
X70050000Y-94940000D03*
X73050000Y-96440000D03*
X74550000Y-100440000D03*
X72050000Y-100440000D03*
X67550000Y-104940000D03*
X67550000Y-102940000D03*
X67550000Y-100940000D03*
X67550000Y-81440000D03*
X67550000Y-83440000D03*
X67550000Y-85440000D03*
X67550000Y-87440000D03*
X67550000Y-89440000D03*
X67550000Y-91440000D03*
X67550000Y-93440000D03*
X67550000Y-95440000D03*
X83150000Y-87340000D03*
X82950000Y-90340000D03*
X78650000Y-88740000D03*
X71950000Y-88740000D03*
X84780000Y-103870000D03*
X85760000Y-103870000D03*
X86020000Y-100630000D03*
X84720000Y-100630000D03*
X86020000Y-99330000D03*
X84720000Y-99330000D03*
X85050000Y-87240000D03*
X78450000Y-87240000D03*
X76450000Y-87340000D03*
X71750000Y-87240000D03*
X69850000Y-87340000D03*
X85050000Y-86140000D03*
X78450000Y-86140000D03*
X81250000Y-86140000D03*
X75550000Y-85140000D03*
X68950000Y-85140000D03*
X71750000Y-86140000D03*
X82350000Y-78440000D03*
X91350000Y-103340000D03*
X86650000Y-91140000D03*
X84850000Y-91140000D03*
X86350000Y-96840000D03*
X85050000Y-89440000D03*
X87850000Y-89240000D03*
X87850000Y-94940000D03*
X87950000Y-98140000D03*
X88650000Y-99090000D03*
X89175000Y-100040000D03*
X90050000Y-100640000D03*
X90675000Y-101540000D03*
X82250000Y-98240000D03*
X86750000Y-103140000D03*
X85850000Y-95840000D03*
X84850000Y-96340000D03*
X83250000Y-95940000D03*
X99850000Y-79840000D03*
X81550000Y-99440000D03*
X81150000Y-100440000D03*
X81850000Y-101140000D03*
X82450000Y-101940000D03*
D20*
X73550000Y-88940000D02*
X73550000Y-90540000D01*
X73550000Y-90540000D02*
X74300000Y-91290000D01*
X76900000Y-97640000D02*
X76900000Y-95540000D01*
X76900000Y-95540000D02*
X76200000Y-94840000D01*
D21*
X86620000Y-98030000D02*
X86620000Y-98020000D01*
X86620000Y-98020000D02*
X87350000Y-97290000D01*
D20*
X92620000Y-106900000D02*
X92620000Y-105010000D01*
X92620000Y-105010000D02*
X92550000Y-104940000D01*
X90080000Y-106900000D02*
X90080000Y-105970000D01*
X90080000Y-105970000D02*
X89050000Y-104940000D01*
X86050000Y-80940000D02*
X86050000Y-81440000D01*
X86050000Y-81440000D02*
X87050000Y-82440000D01*
X88140000Y-78350000D02*
X88050000Y-78440000D01*
X88050000Y-78440000D02*
X86050000Y-78440000D01*
X88140000Y-76980000D02*
X88140000Y-78350000D01*
X84780000Y-103870000D02*
X81620000Y-103870000D01*
X81620000Y-103870000D02*
X81050000Y-104440000D01*
X77050000Y-81940000D02*
X74050000Y-81940000D01*
X78650000Y-88740000D02*
X80350000Y-88740000D01*
X80350000Y-88740000D02*
X80550000Y-88940000D01*
X74550000Y-100440000D02*
X74550000Y-97940000D01*
X74550000Y-97940000D02*
X73050000Y-96440000D01*
X68440000Y-98040000D02*
X70840000Y-100440000D01*
X70840000Y-100440000D02*
X72050000Y-100440000D01*
X67550000Y-100940000D02*
X67550000Y-102940000D01*
X67550000Y-83440000D02*
X67550000Y-81440000D01*
X67550000Y-87440000D02*
X67550000Y-85440000D01*
X67550000Y-91440000D02*
X67550000Y-89440000D01*
X67550000Y-95440000D02*
X67550000Y-93440000D01*
X85760000Y-103870000D02*
X84780000Y-103870000D01*
X87080000Y-78880000D02*
X82940000Y-78880000D01*
X82940000Y-78880000D02*
X79920000Y-81900000D01*
D21*
X82350000Y-78440000D02*
X78950000Y-78440000D01*
X78950000Y-78440000D02*
X78150000Y-77640000D01*
X78150000Y-77640000D02*
X76250000Y-77640000D01*
X76250000Y-77640000D02*
X74850000Y-79040000D01*
D20*
X91850000Y-100440000D02*
X91850000Y-102840000D01*
X91850000Y-102840000D02*
X91350000Y-103340000D01*
X89650000Y-98240000D02*
X91850000Y-100440000D01*
X89650000Y-94140000D02*
X89650000Y-98240000D01*
X86650000Y-91140000D02*
X89650000Y-94140000D01*
X86350000Y-96840000D02*
X86699999Y-96490001D01*
X86699999Y-96490001D02*
X86699999Y-91189999D01*
X86699999Y-91189999D02*
X86650000Y-91140000D01*
X84850000Y-91140000D02*
X86650000Y-91140000D01*
X86120000Y-98030000D02*
X86120000Y-97070000D01*
X86120000Y-97070000D02*
X86350000Y-96840000D01*
X87850000Y-89240000D02*
X85250000Y-89240000D01*
X85250000Y-89240000D02*
X85050000Y-89440000D01*
X88299999Y-97790001D02*
X88299999Y-95389999D01*
X88299999Y-95389999D02*
X87850000Y-94940000D01*
X88299999Y-97790001D02*
X87950000Y-98140000D01*
X87860000Y-98730000D02*
X87950000Y-98640000D01*
X87950000Y-98640000D02*
X87950000Y-98140000D01*
X87320000Y-98730000D02*
X87860000Y-98730000D01*
D21*
X87320000Y-99230000D02*
X88510000Y-99230000D01*
X88510000Y-99230000D02*
X88650000Y-99090000D01*
X87320000Y-100230000D02*
X88985000Y-100230000D01*
X88985000Y-100230000D02*
X89175000Y-100040000D01*
X87320000Y-100730000D02*
X89960000Y-100730000D01*
X89960000Y-100730000D02*
X90050000Y-100640000D01*
X87320000Y-101230000D02*
X87925000Y-101230000D01*
X90180026Y-101540000D02*
X90675000Y-101540000D01*
X87925000Y-101230000D02*
X88235000Y-101540000D01*
X88235000Y-101540000D02*
X90180026Y-101540000D01*
D20*
X83420000Y-98730000D02*
X82740000Y-98730000D01*
X82740000Y-98730000D02*
X82250000Y-98240000D01*
D21*
X86620000Y-101930000D02*
X86620000Y-103010000D01*
X86620000Y-103010000D02*
X86750000Y-103140000D01*
X85620000Y-98030000D02*
X85620000Y-96070000D01*
X85620000Y-96070000D02*
X85850000Y-95840000D01*
X85120000Y-98030000D02*
X85120000Y-96610000D01*
X85120000Y-96610000D02*
X84850000Y-96340000D01*
X71840000Y-103440000D02*
X73840000Y-103440000D01*
X73840000Y-103440000D02*
X80540000Y-96740000D01*
X83650000Y-96740000D02*
X80540000Y-96740000D01*
X80540000Y-96740000D02*
X76440000Y-92640000D01*
X84120000Y-97210000D02*
X83650000Y-96740000D01*
X84120000Y-98030000D02*
X84120000Y-97210000D01*
X84620000Y-98030000D02*
X84620000Y-97057202D01*
X84620000Y-97057202D02*
X83502798Y-95940000D01*
X83502798Y-95940000D02*
X83250000Y-95940000D01*
D20*
X83420000Y-99730000D02*
X81840000Y-99730000D01*
X81840000Y-99730000D02*
X81550000Y-99440000D01*
X83420000Y-100230000D02*
X81360000Y-100230000D01*
X81360000Y-100230000D02*
X81150000Y-100440000D01*
X83420000Y-100730000D02*
X82260000Y-100730000D01*
X82260000Y-100730000D02*
X81850000Y-101140000D01*
X83420000Y-101230000D02*
X82910000Y-101230000D01*
X82910000Y-101230000D02*
X82450000Y-101690000D01*
X82450000Y-101690000D02*
X82450000Y-101940000D01*
D22*
G36*
X75346052Y-77992404D02*
X75290086Y-77955009D01*
X74850000Y-77867470D01*
X74409914Y-77955009D01*
X74036827Y-78204297D01*
X73787539Y-78577384D01*
X73700000Y-79017470D01*
X73700000Y-79062530D01*
X73787539Y-79502616D01*
X74036827Y-79875703D01*
X74409914Y-80124991D01*
X74850000Y-80212530D01*
X75290086Y-80124991D01*
X75523953Y-79968726D01*
X99199888Y-79968726D01*
X99298636Y-80207714D01*
X99481324Y-80390722D01*
X99720140Y-80489887D01*
X99978726Y-80490112D01*
X100217714Y-80391364D01*
X100400722Y-80208676D01*
X100499887Y-79969860D01*
X100500112Y-79711274D01*
X100401364Y-79472286D01*
X100218676Y-79289278D01*
X99979860Y-79190113D01*
X99721274Y-79189888D01*
X99482286Y-79288636D01*
X99299278Y-79471324D01*
X99200113Y-79710140D01*
X99199888Y-79968726D01*
X75523953Y-79968726D01*
X75663173Y-79875703D01*
X75912461Y-79502616D01*
X76000000Y-79062530D01*
X76000000Y-79017470D01*
X75912461Y-78577384D01*
X75893114Y-78548430D01*
X76411544Y-78030000D01*
X77988456Y-78030000D01*
X78674228Y-78715772D01*
X78800753Y-78800313D01*
X78825515Y-78805239D01*
X78950000Y-78830001D01*
X78950005Y-78830000D01*
X81820883Y-78830000D01*
X81981324Y-78990722D01*
X82220140Y-79089887D01*
X82478726Y-79090112D01*
X82717714Y-78991364D01*
X82900722Y-78808676D01*
X82999887Y-78569860D01*
X83000112Y-78311274D01*
X82923284Y-78125335D01*
X83060000Y-78152530D01*
X83500086Y-78064991D01*
X83873173Y-77815703D01*
X83990574Y-77640000D01*
X89749426Y-77640000D01*
X89866827Y-77815703D01*
X90239914Y-78064991D01*
X90680000Y-78152530D01*
X91120086Y-78064991D01*
X91493173Y-77815703D01*
X91610574Y-77640000D01*
X92289426Y-77640000D01*
X92406827Y-77815703D01*
X92779914Y-78064991D01*
X93220000Y-78152530D01*
X93660086Y-78064991D01*
X94033173Y-77815703D01*
X94150574Y-77640000D01*
X94829426Y-77640000D01*
X94946827Y-77815703D01*
X95319914Y-78064991D01*
X95760000Y-78152530D01*
X96200086Y-78064991D01*
X96573173Y-77815703D01*
X96690574Y-77640000D01*
X99909426Y-77640000D01*
X100026827Y-77815703D01*
X100399914Y-78064991D01*
X100840000Y-78152530D01*
X101280086Y-78064991D01*
X101653173Y-77815703D01*
X101770574Y-77640000D01*
X102449426Y-77640000D01*
X102566827Y-77815703D01*
X102939914Y-78064991D01*
X103380000Y-78152530D01*
X103820086Y-78064991D01*
X104193173Y-77815703D01*
X104310574Y-77640000D01*
X105650000Y-77640000D01*
X105650000Y-80990000D01*
X98400000Y-80990000D01*
X98363654Y-80996839D01*
X98330273Y-81018319D01*
X98307879Y-81051094D01*
X98300000Y-81090000D01*
X98300000Y-88840000D01*
X94200000Y-88840000D01*
X94179250Y-88842177D01*
X93354250Y-89017177D01*
X93320553Y-89031122D01*
X91895553Y-89956122D01*
X91869314Y-89980926D01*
X90844314Y-91380926D01*
X90826713Y-91421571D01*
X90526713Y-93021571D01*
X90526942Y-93059612D01*
X90876942Y-94809612D01*
X90892229Y-94846116D01*
X91892229Y-96321116D01*
X91924896Y-96351543D01*
X93349896Y-97176543D01*
X93380388Y-97188058D01*
X94130388Y-97338058D01*
X94150000Y-97340000D01*
X98300000Y-97340000D01*
X98300000Y-106240000D01*
X85930574Y-106240000D01*
X85813173Y-106064297D01*
X85440086Y-105815009D01*
X85000000Y-105727470D01*
X84559914Y-105815009D01*
X84186827Y-106064297D01*
X84069426Y-106240000D01*
X83390574Y-106240000D01*
X83273173Y-106064297D01*
X82900086Y-105815009D01*
X82460000Y-105727470D01*
X82019914Y-105815009D01*
X81646827Y-106064297D01*
X81529426Y-106240000D01*
X80850574Y-106240000D01*
X80733173Y-106064297D01*
X80360086Y-105815009D01*
X79920000Y-105727470D01*
X79479914Y-105815009D01*
X79106827Y-106064297D01*
X78989426Y-106240000D01*
X78310574Y-106240000D01*
X78193173Y-106064297D01*
X77820086Y-105815009D01*
X77380000Y-105727470D01*
X76939914Y-105815009D01*
X76566827Y-106064297D01*
X76449426Y-106240000D01*
X75770574Y-106240000D01*
X75653173Y-106064297D01*
X75280086Y-105815009D01*
X74840000Y-105727470D01*
X74399914Y-105815009D01*
X74026827Y-106064297D01*
X73909426Y-106240000D01*
X73455877Y-106240000D01*
X73455877Y-106050000D01*
X73434958Y-105938827D01*
X73369255Y-105836721D01*
X73269003Y-105768222D01*
X73150000Y-105744123D01*
X71450000Y-105744123D01*
X71338827Y-105765042D01*
X71236721Y-105830745D01*
X71168222Y-105930997D01*
X71144123Y-106050000D01*
X71144123Y-106240000D01*
X67050000Y-106240000D01*
X67050000Y-103717256D01*
X70439757Y-103717256D01*
X70652445Y-104232000D01*
X71045928Y-104626170D01*
X71560301Y-104839757D01*
X72117256Y-104840243D01*
X72632000Y-104627555D01*
X73026170Y-104234072D01*
X73193956Y-103830000D01*
X73839995Y-103830000D01*
X73840000Y-103830001D01*
X73964485Y-103805239D01*
X73989247Y-103800313D01*
X74115772Y-103715772D01*
X77262818Y-100568726D01*
X80499888Y-100568726D01*
X80598636Y-100807714D01*
X80781324Y-100990722D01*
X81020140Y-101089887D01*
X81200043Y-101090044D01*
X81199888Y-101268726D01*
X81298636Y-101507714D01*
X81481324Y-101690722D01*
X81720140Y-101789887D01*
X81808491Y-101789964D01*
X81800113Y-101810140D01*
X81799888Y-102068726D01*
X81898636Y-102307714D01*
X82081324Y-102490722D01*
X82320140Y-102589887D01*
X82578726Y-102590112D01*
X82817714Y-102491364D01*
X83000722Y-102308676D01*
X83099887Y-102069860D01*
X83100112Y-101811274D01*
X83060643Y-101715753D01*
X83090519Y-101685877D01*
X83825000Y-101685877D01*
X83936173Y-101664958D01*
X84006040Y-101620000D01*
X84070000Y-101620000D01*
X84106346Y-101613161D01*
X84139727Y-101591681D01*
X84162121Y-101558906D01*
X84167974Y-101530000D01*
X84170000Y-101530000D01*
X84170000Y-102370000D01*
X84176839Y-102406346D01*
X84198319Y-102439727D01*
X84231094Y-102462121D01*
X84270000Y-102470000D01*
X84470000Y-102470000D01*
X84506346Y-102463161D01*
X84539727Y-102441681D01*
X84562121Y-102408906D01*
X84570000Y-102370000D01*
X84570000Y-101280000D01*
X84670000Y-101280000D01*
X84670000Y-102370000D01*
X84676839Y-102406346D01*
X84698319Y-102439727D01*
X84731094Y-102462121D01*
X84770000Y-102470000D01*
X84970000Y-102470000D01*
X85006346Y-102463161D01*
X85039727Y-102441681D01*
X85062121Y-102408906D01*
X85070000Y-102370000D01*
X85070000Y-101280000D01*
X85069734Y-101278583D01*
X85170000Y-101278583D01*
X85170000Y-102368583D01*
X85176839Y-102404929D01*
X85198319Y-102438310D01*
X85231094Y-102460704D01*
X85270000Y-102468583D01*
X85470000Y-102468583D01*
X85506346Y-102461744D01*
X85539727Y-102440264D01*
X85562121Y-102407489D01*
X85570000Y-102368583D01*
X85570000Y-101278583D01*
X85670000Y-101278583D01*
X85670000Y-102368583D01*
X85676839Y-102404929D01*
X85698319Y-102438310D01*
X85731094Y-102460704D01*
X85770000Y-102468583D01*
X85970000Y-102468583D01*
X86006346Y-102461744D01*
X86039727Y-102440264D01*
X86062121Y-102407489D01*
X86070000Y-102368583D01*
X86070000Y-101278583D01*
X86063161Y-101242237D01*
X86041681Y-101208856D01*
X86008906Y-101186462D01*
X85970000Y-101178583D01*
X85770000Y-101178583D01*
X85733654Y-101185422D01*
X85700273Y-101206902D01*
X85677879Y-101239677D01*
X85670000Y-101278583D01*
X85570000Y-101278583D01*
X85563161Y-101242237D01*
X85541681Y-101208856D01*
X85508906Y-101186462D01*
X85470000Y-101178583D01*
X85270000Y-101178583D01*
X85233654Y-101185422D01*
X85200273Y-101206902D01*
X85177879Y-101239677D01*
X85170000Y-101278583D01*
X85069734Y-101278583D01*
X85063161Y-101243654D01*
X85041681Y-101210273D01*
X85008906Y-101187879D01*
X84970000Y-101180000D01*
X84770000Y-101180000D01*
X84733654Y-101186839D01*
X84700273Y-101208319D01*
X84677879Y-101241094D01*
X84670000Y-101280000D01*
X84570000Y-101280000D01*
X84563161Y-101243654D01*
X84541681Y-101210273D01*
X84508906Y-101187879D01*
X84470000Y-101180000D01*
X84280000Y-101180000D01*
X84243654Y-101186839D01*
X84210273Y-101208319D01*
X84187879Y-101241094D01*
X84180000Y-101280000D01*
X84180000Y-101396165D01*
X84170295Y-101522330D01*
X84170000Y-101530000D01*
X84167974Y-101530000D01*
X84170000Y-101520000D01*
X84170000Y-99380000D01*
X84163161Y-99343654D01*
X84141681Y-99310273D01*
X84108906Y-99287879D01*
X84070000Y-99280000D01*
X83874021Y-99280000D01*
X83845000Y-99274123D01*
X82995000Y-99274123D01*
X82963767Y-99280000D01*
X82187190Y-99280000D01*
X82101364Y-99072286D01*
X81918676Y-98889278D01*
X81679860Y-98790113D01*
X81421274Y-98789888D01*
X81182286Y-98888636D01*
X80999278Y-99071324D01*
X80900113Y-99310140D01*
X80899888Y-99568726D01*
X80995646Y-99800477D01*
X80782286Y-99888636D01*
X80599278Y-100071324D01*
X80500113Y-100310140D01*
X80499888Y-100568726D01*
X77262818Y-100568726D01*
X80701544Y-97130000D01*
X83488456Y-97130000D01*
X83730000Y-97371543D01*
X83730000Y-97424853D01*
X83688222Y-97485997D01*
X83664123Y-97605000D01*
X83664123Y-98274123D01*
X82995000Y-98274123D01*
X82963767Y-98280000D01*
X82926396Y-98280000D01*
X82899988Y-98253592D01*
X82900112Y-98111274D01*
X82801364Y-97872286D01*
X82618676Y-97689278D01*
X82379860Y-97590113D01*
X82121274Y-97589888D01*
X81882286Y-97688636D01*
X81699278Y-97871324D01*
X81600113Y-98110140D01*
X81599888Y-98368726D01*
X81698636Y-98607714D01*
X81881324Y-98790722D01*
X82120140Y-98889887D01*
X82263616Y-98890012D01*
X82421802Y-99048198D01*
X82567793Y-99145747D01*
X82740000Y-99180000D01*
X82965979Y-99180000D01*
X82995000Y-99185877D01*
X83825000Y-99185877D01*
X83856233Y-99180000D01*
X84070000Y-99180000D01*
X84106346Y-99173161D01*
X84139727Y-99151681D01*
X84162121Y-99118906D01*
X84170000Y-99080000D01*
X84170000Y-98780000D01*
X86460000Y-98780000D01*
X86496346Y-98773161D01*
X86529727Y-98751681D01*
X86552121Y-98718906D01*
X86560000Y-98680000D01*
X86560000Y-98533402D01*
X86570000Y-98484021D01*
X86570000Y-101180000D01*
X86270000Y-101180000D01*
X86233654Y-101186839D01*
X86200273Y-101208319D01*
X86177879Y-101241094D01*
X86170000Y-101280000D01*
X86170000Y-101495979D01*
X86164123Y-101525000D01*
X86164123Y-102355000D01*
X86185042Y-102466173D01*
X86230000Y-102536040D01*
X86230000Y-102740656D01*
X86199278Y-102771324D01*
X86100113Y-103010140D01*
X86099888Y-103268726D01*
X86198636Y-103507714D01*
X86381324Y-103690722D01*
X86620140Y-103789887D01*
X86878726Y-103790112D01*
X87117714Y-103691364D01*
X87300722Y-103508676D01*
X87399887Y-103269860D01*
X87400112Y-103011274D01*
X87301364Y-102772286D01*
X87118676Y-102589278D01*
X87010000Y-102544152D01*
X87010000Y-102535147D01*
X87051778Y-102474003D01*
X87075877Y-102355000D01*
X87075877Y-101685877D01*
X87745000Y-101685877D01*
X87815977Y-101672521D01*
X87959228Y-101815772D01*
X88085753Y-101900313D01*
X88235000Y-101930000D01*
X90145883Y-101930000D01*
X90306324Y-102090722D01*
X90545140Y-102189887D01*
X90803726Y-102190112D01*
X91042714Y-102091364D01*
X91225722Y-101908676D01*
X91324887Y-101669860D01*
X91325112Y-101411274D01*
X91226364Y-101172286D01*
X91043676Y-100989278D01*
X90804860Y-100890113D01*
X90650010Y-100889978D01*
X90699887Y-100769860D01*
X90700112Y-100511274D01*
X90601364Y-100272286D01*
X90418676Y-100089278D01*
X90179860Y-99990113D01*
X89921274Y-99989888D01*
X89825009Y-100029664D01*
X89825112Y-99911274D01*
X89726364Y-99672286D01*
X89543676Y-99489278D01*
X89304860Y-99390113D01*
X89229219Y-99390047D01*
X89299887Y-99219860D01*
X89300112Y-98961274D01*
X89201364Y-98722286D01*
X89018676Y-98539278D01*
X88779860Y-98440113D01*
X88529282Y-98439895D01*
X88599887Y-98269860D01*
X88600012Y-98126384D01*
X88618197Y-98108199D01*
X88715745Y-97962209D01*
X88749999Y-97790001D01*
X88749999Y-95389999D01*
X88715745Y-95217791D01*
X88618197Y-95071801D01*
X88499988Y-94953592D01*
X88500112Y-94811274D01*
X88401364Y-94572286D01*
X88218676Y-94389278D01*
X87979860Y-94290113D01*
X87721274Y-94289888D01*
X87482286Y-94388636D01*
X87299278Y-94571324D01*
X87200113Y-94810140D01*
X87199888Y-95068726D01*
X87298636Y-95307714D01*
X87481324Y-95490722D01*
X87720140Y-95589887D01*
X87849999Y-95590000D01*
X87849999Y-97489913D01*
X87821274Y-97489888D01*
X87582286Y-97588636D01*
X87399278Y-97771324D01*
X87300113Y-98010140D01*
X87299888Y-98268726D01*
X87302118Y-98274123D01*
X86915000Y-98274123D01*
X86803827Y-98295042D01*
X86733960Y-98340000D01*
X86670000Y-98340000D01*
X86633654Y-98346839D01*
X86600273Y-98368319D01*
X86577879Y-98401094D01*
X86575877Y-98410980D01*
X86575877Y-97605000D01*
X86570000Y-97573767D01*
X86570000Y-97452398D01*
X86717714Y-97391364D01*
X86900722Y-97208676D01*
X86999887Y-96969860D01*
X87000012Y-96826384D01*
X87018197Y-96808199D01*
X87115745Y-96662209D01*
X87149999Y-96490001D01*
X87149999Y-92276395D01*
X89200000Y-94326396D01*
X89200000Y-98240000D01*
X89234254Y-98412208D01*
X89298712Y-98508676D01*
X89331802Y-98558198D01*
X91400000Y-100626396D01*
X91400000Y-102653604D01*
X91363592Y-102690012D01*
X91221274Y-102689888D01*
X90982286Y-102788636D01*
X90799278Y-102971324D01*
X90700113Y-103210140D01*
X90699888Y-103468726D01*
X90798636Y-103707714D01*
X90981324Y-103890722D01*
X91220140Y-103989887D01*
X91478726Y-103990112D01*
X91717714Y-103891364D01*
X91900722Y-103708676D01*
X91999887Y-103469860D01*
X92000012Y-103326384D01*
X92168198Y-103158198D01*
X92180358Y-103140000D01*
X92265746Y-103012208D01*
X92300000Y-102840000D01*
X92300000Y-100440000D01*
X92265746Y-100267792D01*
X92168198Y-100121802D01*
X90100000Y-98053604D01*
X90100000Y-94140000D01*
X90065746Y-93967792D01*
X89968198Y-93821802D01*
X87299988Y-91153592D01*
X87300112Y-91011274D01*
X87201364Y-90772286D01*
X87018676Y-90589278D01*
X86779860Y-90490113D01*
X86521274Y-90489888D01*
X86282286Y-90588636D01*
X86180744Y-90690000D01*
X85319222Y-90690000D01*
X85218676Y-90589278D01*
X84979860Y-90490113D01*
X84721274Y-90489888D01*
X84482286Y-90588636D01*
X84299278Y-90771324D01*
X84200113Y-91010140D01*
X84199888Y-91268726D01*
X84298636Y-91507714D01*
X84481324Y-91690722D01*
X84720140Y-91789887D01*
X84978726Y-91790112D01*
X85217714Y-91691364D01*
X85319256Y-91590000D01*
X86180778Y-91590000D01*
X86249999Y-91659342D01*
X86249999Y-95320656D01*
X86218676Y-95289278D01*
X85979860Y-95190113D01*
X85721274Y-95189888D01*
X85482286Y-95288636D01*
X85299278Y-95471324D01*
X85200113Y-95710140D01*
X85200051Y-95781544D01*
X84979860Y-95690113D01*
X84721274Y-95689888D01*
X84482286Y-95788636D01*
X84299278Y-95971324D01*
X84236603Y-96122262D01*
X83882154Y-95767812D01*
X83801364Y-95572286D01*
X83618676Y-95389278D01*
X83379860Y-95290113D01*
X83121274Y-95289888D01*
X82882286Y-95388636D01*
X82699278Y-95571324D01*
X82600113Y-95810140D01*
X82599888Y-96068726D01*
X82698636Y-96307714D01*
X82740848Y-96350000D01*
X80701543Y-96350000D01*
X77672952Y-93321408D01*
X77839757Y-92919699D01*
X77840243Y-92362744D01*
X77627555Y-91848000D01*
X77234072Y-91453830D01*
X76719699Y-91240243D01*
X76162744Y-91239757D01*
X75648000Y-91452445D01*
X75253830Y-91845928D01*
X75040243Y-92360301D01*
X75039757Y-92917256D01*
X75252445Y-93432000D01*
X75645928Y-93826170D01*
X76160301Y-94039757D01*
X76717256Y-94040243D01*
X77121620Y-93873163D01*
X79988456Y-96740000D01*
X73678456Y-103050000D01*
X73193658Y-103050000D01*
X73027555Y-102648000D01*
X72634072Y-102253830D01*
X72119699Y-102040243D01*
X71562744Y-102039757D01*
X71048000Y-102252445D01*
X70653830Y-102645928D01*
X70440243Y-103160301D01*
X70439757Y-103717256D01*
X67050000Y-103717256D01*
X67050000Y-89568726D01*
X84399888Y-89568726D01*
X84498636Y-89807714D01*
X84681324Y-89990722D01*
X84920140Y-90089887D01*
X85178726Y-90090112D01*
X85417714Y-89991364D01*
X85600722Y-89808676D01*
X85650001Y-89690000D01*
X87380778Y-89690000D01*
X87481324Y-89790722D01*
X87720140Y-89889887D01*
X87978726Y-89890112D01*
X88217714Y-89791364D01*
X88400722Y-89608676D01*
X88499887Y-89369860D01*
X88500112Y-89111274D01*
X88401364Y-88872286D01*
X88218676Y-88689278D01*
X87979860Y-88590113D01*
X87721274Y-88589888D01*
X87482286Y-88688636D01*
X87380744Y-88790000D01*
X85250000Y-88790000D01*
X85202393Y-88799470D01*
X85179860Y-88790113D01*
X84921274Y-88789888D01*
X84682286Y-88888636D01*
X84499278Y-89071324D01*
X84400113Y-89310140D01*
X84399888Y-89568726D01*
X67050000Y-89568726D01*
X67050000Y-84740000D01*
X68250000Y-84740000D01*
X68250000Y-86640000D01*
X68270517Y-86749037D01*
X68334958Y-86849181D01*
X68433283Y-86916364D01*
X68550000Y-86940000D01*
X97050000Y-86940000D01*
X97159037Y-86919483D01*
X97259181Y-86855042D01*
X97326364Y-86756717D01*
X97350000Y-86640000D01*
X97350000Y-80540000D01*
X97329483Y-80430963D01*
X97265042Y-80330819D01*
X97166717Y-80263636D01*
X97050000Y-80240000D01*
X93550000Y-80240000D01*
X93440963Y-80260517D01*
X93340819Y-80324958D01*
X93273636Y-80423283D01*
X93250000Y-80540000D01*
X93250000Y-84440000D01*
X68550000Y-84440000D01*
X68440963Y-84460517D01*
X68340819Y-84524958D01*
X68273636Y-84623283D01*
X68250000Y-84740000D01*
X67050000Y-84740000D01*
X67050000Y-78190000D01*
X71154123Y-78190000D01*
X71154123Y-79890000D01*
X71175042Y-80001173D01*
X71240745Y-80103279D01*
X71340997Y-80171778D01*
X71460000Y-80195877D01*
X73160000Y-80195877D01*
X73271173Y-80174958D01*
X73373279Y-80109255D01*
X73441778Y-80009003D01*
X73465877Y-79890000D01*
X73465877Y-78190000D01*
X73444958Y-78078827D01*
X73379255Y-77976721D01*
X73279003Y-77908222D01*
X73160000Y-77884123D01*
X71460000Y-77884123D01*
X71348827Y-77905042D01*
X71246721Y-77970745D01*
X71178222Y-78070997D01*
X71154123Y-78190000D01*
X67050000Y-78190000D01*
X67050000Y-77640000D01*
X75698456Y-77640000D01*
X75346052Y-77992404D01*
X75346052Y-77992404D01*
G37*
X75346052Y-77992404D02*
X75290086Y-77955009D01*
X74850000Y-77867470D01*
X74409914Y-77955009D01*
X74036827Y-78204297D01*
X73787539Y-78577384D01*
X73700000Y-79017470D01*
X73700000Y-79062530D01*
X73787539Y-79502616D01*
X74036827Y-79875703D01*
X74409914Y-80124991D01*
X74850000Y-80212530D01*
X75290086Y-80124991D01*
X75523953Y-79968726D01*
X99199888Y-79968726D01*
X99298636Y-80207714D01*
X99481324Y-80390722D01*
X99720140Y-80489887D01*
X99978726Y-80490112D01*
X100217714Y-80391364D01*
X100400722Y-80208676D01*
X100499887Y-79969860D01*
X100500112Y-79711274D01*
X100401364Y-79472286D01*
X100218676Y-79289278D01*
X99979860Y-79190113D01*
X99721274Y-79189888D01*
X99482286Y-79288636D01*
X99299278Y-79471324D01*
X99200113Y-79710140D01*
X99199888Y-79968726D01*
X75523953Y-79968726D01*
X75663173Y-79875703D01*
X75912461Y-79502616D01*
X76000000Y-79062530D01*
X76000000Y-79017470D01*
X75912461Y-78577384D01*
X75893114Y-78548430D01*
X76411544Y-78030000D01*
X77988456Y-78030000D01*
X78674228Y-78715772D01*
X78800753Y-78800313D01*
X78825515Y-78805239D01*
X78950000Y-78830001D01*
X78950005Y-78830000D01*
X81820883Y-78830000D01*
X81981324Y-78990722D01*
X82220140Y-79089887D01*
X82478726Y-79090112D01*
X82717714Y-78991364D01*
X82900722Y-78808676D01*
X82999887Y-78569860D01*
X83000112Y-78311274D01*
X82923284Y-78125335D01*
X83060000Y-78152530D01*
X83500086Y-78064991D01*
X83873173Y-77815703D01*
X83990574Y-77640000D01*
X89749426Y-77640000D01*
X89866827Y-77815703D01*
X90239914Y-78064991D01*
X90680000Y-78152530D01*
X91120086Y-78064991D01*
X91493173Y-77815703D01*
X91610574Y-77640000D01*
X92289426Y-77640000D01*
X92406827Y-77815703D01*
X92779914Y-78064991D01*
X93220000Y-78152530D01*
X93660086Y-78064991D01*
X94033173Y-77815703D01*
X94150574Y-77640000D01*
X94829426Y-77640000D01*
X94946827Y-77815703D01*
X95319914Y-78064991D01*
X95760000Y-78152530D01*
X96200086Y-78064991D01*
X96573173Y-77815703D01*
X96690574Y-77640000D01*
X99909426Y-77640000D01*
X100026827Y-77815703D01*
X100399914Y-78064991D01*
X100840000Y-78152530D01*
X101280086Y-78064991D01*
X101653173Y-77815703D01*
X101770574Y-77640000D01*
X102449426Y-77640000D01*
X102566827Y-77815703D01*
X102939914Y-78064991D01*
X103380000Y-78152530D01*
X103820086Y-78064991D01*
X104193173Y-77815703D01*
X104310574Y-77640000D01*
X105650000Y-77640000D01*
X105650000Y-80990000D01*
X98400000Y-80990000D01*
X98363654Y-80996839D01*
X98330273Y-81018319D01*
X98307879Y-81051094D01*
X98300000Y-81090000D01*
X98300000Y-88840000D01*
X94200000Y-88840000D01*
X94179250Y-88842177D01*
X93354250Y-89017177D01*
X93320553Y-89031122D01*
X91895553Y-89956122D01*
X91869314Y-89980926D01*
X90844314Y-91380926D01*
X90826713Y-91421571D01*
X90526713Y-93021571D01*
X90526942Y-93059612D01*
X90876942Y-94809612D01*
X90892229Y-94846116D01*
X91892229Y-96321116D01*
X91924896Y-96351543D01*
X93349896Y-97176543D01*
X93380388Y-97188058D01*
X94130388Y-97338058D01*
X94150000Y-97340000D01*
X98300000Y-97340000D01*
X98300000Y-106240000D01*
X85930574Y-106240000D01*
X85813173Y-106064297D01*
X85440086Y-105815009D01*
X85000000Y-105727470D01*
X84559914Y-105815009D01*
X84186827Y-106064297D01*
X84069426Y-106240000D01*
X83390574Y-106240000D01*
X83273173Y-106064297D01*
X82900086Y-105815009D01*
X82460000Y-105727470D01*
X82019914Y-105815009D01*
X81646827Y-106064297D01*
X81529426Y-106240000D01*
X80850574Y-106240000D01*
X80733173Y-106064297D01*
X80360086Y-105815009D01*
X79920000Y-105727470D01*
X79479914Y-105815009D01*
X79106827Y-106064297D01*
X78989426Y-106240000D01*
X78310574Y-106240000D01*
X78193173Y-106064297D01*
X77820086Y-105815009D01*
X77380000Y-105727470D01*
X76939914Y-105815009D01*
X76566827Y-106064297D01*
X76449426Y-106240000D01*
X75770574Y-106240000D01*
X75653173Y-106064297D01*
X75280086Y-105815009D01*
X74840000Y-105727470D01*
X74399914Y-105815009D01*
X74026827Y-106064297D01*
X73909426Y-106240000D01*
X73455877Y-106240000D01*
X73455877Y-106050000D01*
X73434958Y-105938827D01*
X73369255Y-105836721D01*
X73269003Y-105768222D01*
X73150000Y-105744123D01*
X71450000Y-105744123D01*
X71338827Y-105765042D01*
X71236721Y-105830745D01*
X71168222Y-105930997D01*
X71144123Y-106050000D01*
X71144123Y-106240000D01*
X67050000Y-106240000D01*
X67050000Y-103717256D01*
X70439757Y-103717256D01*
X70652445Y-104232000D01*
X71045928Y-104626170D01*
X71560301Y-104839757D01*
X72117256Y-104840243D01*
X72632000Y-104627555D01*
X73026170Y-104234072D01*
X73193956Y-103830000D01*
X73839995Y-103830000D01*
X73840000Y-103830001D01*
X73964485Y-103805239D01*
X73989247Y-103800313D01*
X74115772Y-103715772D01*
X77262818Y-100568726D01*
X80499888Y-100568726D01*
X80598636Y-100807714D01*
X80781324Y-100990722D01*
X81020140Y-101089887D01*
X81200043Y-101090044D01*
X81199888Y-101268726D01*
X81298636Y-101507714D01*
X81481324Y-101690722D01*
X81720140Y-101789887D01*
X81808491Y-101789964D01*
X81800113Y-101810140D01*
X81799888Y-102068726D01*
X81898636Y-102307714D01*
X82081324Y-102490722D01*
X82320140Y-102589887D01*
X82578726Y-102590112D01*
X82817714Y-102491364D01*
X83000722Y-102308676D01*
X83099887Y-102069860D01*
X83100112Y-101811274D01*
X83060643Y-101715753D01*
X83090519Y-101685877D01*
X83825000Y-101685877D01*
X83936173Y-101664958D01*
X84006040Y-101620000D01*
X84070000Y-101620000D01*
X84106346Y-101613161D01*
X84139727Y-101591681D01*
X84162121Y-101558906D01*
X84167974Y-101530000D01*
X84170000Y-101530000D01*
X84170000Y-102370000D01*
X84176839Y-102406346D01*
X84198319Y-102439727D01*
X84231094Y-102462121D01*
X84270000Y-102470000D01*
X84470000Y-102470000D01*
X84506346Y-102463161D01*
X84539727Y-102441681D01*
X84562121Y-102408906D01*
X84570000Y-102370000D01*
X84570000Y-101280000D01*
X84670000Y-101280000D01*
X84670000Y-102370000D01*
X84676839Y-102406346D01*
X84698319Y-102439727D01*
X84731094Y-102462121D01*
X84770000Y-102470000D01*
X84970000Y-102470000D01*
X85006346Y-102463161D01*
X85039727Y-102441681D01*
X85062121Y-102408906D01*
X85070000Y-102370000D01*
X85070000Y-101280000D01*
X85069734Y-101278583D01*
X85170000Y-101278583D01*
X85170000Y-102368583D01*
X85176839Y-102404929D01*
X85198319Y-102438310D01*
X85231094Y-102460704D01*
X85270000Y-102468583D01*
X85470000Y-102468583D01*
X85506346Y-102461744D01*
X85539727Y-102440264D01*
X85562121Y-102407489D01*
X85570000Y-102368583D01*
X85570000Y-101278583D01*
X85670000Y-101278583D01*
X85670000Y-102368583D01*
X85676839Y-102404929D01*
X85698319Y-102438310D01*
X85731094Y-102460704D01*
X85770000Y-102468583D01*
X85970000Y-102468583D01*
X86006346Y-102461744D01*
X86039727Y-102440264D01*
X86062121Y-102407489D01*
X86070000Y-102368583D01*
X86070000Y-101278583D01*
X86063161Y-101242237D01*
X86041681Y-101208856D01*
X86008906Y-101186462D01*
X85970000Y-101178583D01*
X85770000Y-101178583D01*
X85733654Y-101185422D01*
X85700273Y-101206902D01*
X85677879Y-101239677D01*
X85670000Y-101278583D01*
X85570000Y-101278583D01*
X85563161Y-101242237D01*
X85541681Y-101208856D01*
X85508906Y-101186462D01*
X85470000Y-101178583D01*
X85270000Y-101178583D01*
X85233654Y-101185422D01*
X85200273Y-101206902D01*
X85177879Y-101239677D01*
X85170000Y-101278583D01*
X85069734Y-101278583D01*
X85063161Y-101243654D01*
X85041681Y-101210273D01*
X85008906Y-101187879D01*
X84970000Y-101180000D01*
X84770000Y-101180000D01*
X84733654Y-101186839D01*
X84700273Y-101208319D01*
X84677879Y-101241094D01*
X84670000Y-101280000D01*
X84570000Y-101280000D01*
X84563161Y-101243654D01*
X84541681Y-101210273D01*
X84508906Y-101187879D01*
X84470000Y-101180000D01*
X84280000Y-101180000D01*
X84243654Y-101186839D01*
X84210273Y-101208319D01*
X84187879Y-101241094D01*
X84180000Y-101280000D01*
X84180000Y-101396165D01*
X84170295Y-101522330D01*
X84170000Y-101530000D01*
X84167974Y-101530000D01*
X84170000Y-101520000D01*
X84170000Y-99380000D01*
X84163161Y-99343654D01*
X84141681Y-99310273D01*
X84108906Y-99287879D01*
X84070000Y-99280000D01*
X83874021Y-99280000D01*
X83845000Y-99274123D01*
X82995000Y-99274123D01*
X82963767Y-99280000D01*
X82187190Y-99280000D01*
X82101364Y-99072286D01*
X81918676Y-98889278D01*
X81679860Y-98790113D01*
X81421274Y-98789888D01*
X81182286Y-98888636D01*
X80999278Y-99071324D01*
X80900113Y-99310140D01*
X80899888Y-99568726D01*
X80995646Y-99800477D01*
X80782286Y-99888636D01*
X80599278Y-100071324D01*
X80500113Y-100310140D01*
X80499888Y-100568726D01*
X77262818Y-100568726D01*
X80701544Y-97130000D01*
X83488456Y-97130000D01*
X83730000Y-97371543D01*
X83730000Y-97424853D01*
X83688222Y-97485997D01*
X83664123Y-97605000D01*
X83664123Y-98274123D01*
X82995000Y-98274123D01*
X82963767Y-98280000D01*
X82926396Y-98280000D01*
X82899988Y-98253592D01*
X82900112Y-98111274D01*
X82801364Y-97872286D01*
X82618676Y-97689278D01*
X82379860Y-97590113D01*
X82121274Y-97589888D01*
X81882286Y-97688636D01*
X81699278Y-97871324D01*
X81600113Y-98110140D01*
X81599888Y-98368726D01*
X81698636Y-98607714D01*
X81881324Y-98790722D01*
X82120140Y-98889887D01*
X82263616Y-98890012D01*
X82421802Y-99048198D01*
X82567793Y-99145747D01*
X82740000Y-99180000D01*
X82965979Y-99180000D01*
X82995000Y-99185877D01*
X83825000Y-99185877D01*
X83856233Y-99180000D01*
X84070000Y-99180000D01*
X84106346Y-99173161D01*
X84139727Y-99151681D01*
X84162121Y-99118906D01*
X84170000Y-99080000D01*
X84170000Y-98780000D01*
X86460000Y-98780000D01*
X86496346Y-98773161D01*
X86529727Y-98751681D01*
X86552121Y-98718906D01*
X86560000Y-98680000D01*
X86560000Y-98533402D01*
X86570000Y-98484021D01*
X86570000Y-101180000D01*
X86270000Y-101180000D01*
X86233654Y-101186839D01*
X86200273Y-101208319D01*
X86177879Y-101241094D01*
X86170000Y-101280000D01*
X86170000Y-101495979D01*
X86164123Y-101525000D01*
X86164123Y-102355000D01*
X86185042Y-102466173D01*
X86230000Y-102536040D01*
X86230000Y-102740656D01*
X86199278Y-102771324D01*
X86100113Y-103010140D01*
X86099888Y-103268726D01*
X86198636Y-103507714D01*
X86381324Y-103690722D01*
X86620140Y-103789887D01*
X86878726Y-103790112D01*
X87117714Y-103691364D01*
X87300722Y-103508676D01*
X87399887Y-103269860D01*
X87400112Y-103011274D01*
X87301364Y-102772286D01*
X87118676Y-102589278D01*
X87010000Y-102544152D01*
X87010000Y-102535147D01*
X87051778Y-102474003D01*
X87075877Y-102355000D01*
X87075877Y-101685877D01*
X87745000Y-101685877D01*
X87815977Y-101672521D01*
X87959228Y-101815772D01*
X88085753Y-101900313D01*
X88235000Y-101930000D01*
X90145883Y-101930000D01*
X90306324Y-102090722D01*
X90545140Y-102189887D01*
X90803726Y-102190112D01*
X91042714Y-102091364D01*
X91225722Y-101908676D01*
X91324887Y-101669860D01*
X91325112Y-101411274D01*
X91226364Y-101172286D01*
X91043676Y-100989278D01*
X90804860Y-100890113D01*
X90650010Y-100889978D01*
X90699887Y-100769860D01*
X90700112Y-100511274D01*
X90601364Y-100272286D01*
X90418676Y-100089278D01*
X90179860Y-99990113D01*
X89921274Y-99989888D01*
X89825009Y-100029664D01*
X89825112Y-99911274D01*
X89726364Y-99672286D01*
X89543676Y-99489278D01*
X89304860Y-99390113D01*
X89229219Y-99390047D01*
X89299887Y-99219860D01*
X89300112Y-98961274D01*
X89201364Y-98722286D01*
X89018676Y-98539278D01*
X88779860Y-98440113D01*
X88529282Y-98439895D01*
X88599887Y-98269860D01*
X88600012Y-98126384D01*
X88618197Y-98108199D01*
X88715745Y-97962209D01*
X88749999Y-97790001D01*
X88749999Y-95389999D01*
X88715745Y-95217791D01*
X88618197Y-95071801D01*
X88499988Y-94953592D01*
X88500112Y-94811274D01*
X88401364Y-94572286D01*
X88218676Y-94389278D01*
X87979860Y-94290113D01*
X87721274Y-94289888D01*
X87482286Y-94388636D01*
X87299278Y-94571324D01*
X87200113Y-94810140D01*
X87199888Y-95068726D01*
X87298636Y-95307714D01*
X87481324Y-95490722D01*
X87720140Y-95589887D01*
X87849999Y-95590000D01*
X87849999Y-97489913D01*
X87821274Y-97489888D01*
X87582286Y-97588636D01*
X87399278Y-97771324D01*
X87300113Y-98010140D01*
X87299888Y-98268726D01*
X87302118Y-98274123D01*
X86915000Y-98274123D01*
X86803827Y-98295042D01*
X86733960Y-98340000D01*
X86670000Y-98340000D01*
X86633654Y-98346839D01*
X86600273Y-98368319D01*
X86577879Y-98401094D01*
X86575877Y-98410980D01*
X86575877Y-97605000D01*
X86570000Y-97573767D01*
X86570000Y-97452398D01*
X86717714Y-97391364D01*
X86900722Y-97208676D01*
X86999887Y-96969860D01*
X87000012Y-96826384D01*
X87018197Y-96808199D01*
X87115745Y-96662209D01*
X87149999Y-96490001D01*
X87149999Y-92276395D01*
X89200000Y-94326396D01*
X89200000Y-98240000D01*
X89234254Y-98412208D01*
X89298712Y-98508676D01*
X89331802Y-98558198D01*
X91400000Y-100626396D01*
X91400000Y-102653604D01*
X91363592Y-102690012D01*
X91221274Y-102689888D01*
X90982286Y-102788636D01*
X90799278Y-102971324D01*
X90700113Y-103210140D01*
X90699888Y-103468726D01*
X90798636Y-103707714D01*
X90981324Y-103890722D01*
X91220140Y-103989887D01*
X91478726Y-103990112D01*
X91717714Y-103891364D01*
X91900722Y-103708676D01*
X91999887Y-103469860D01*
X92000012Y-103326384D01*
X92168198Y-103158198D01*
X92180358Y-103140000D01*
X92265746Y-103012208D01*
X92300000Y-102840000D01*
X92300000Y-100440000D01*
X92265746Y-100267792D01*
X92168198Y-100121802D01*
X90100000Y-98053604D01*
X90100000Y-94140000D01*
X90065746Y-93967792D01*
X89968198Y-93821802D01*
X87299988Y-91153592D01*
X87300112Y-91011274D01*
X87201364Y-90772286D01*
X87018676Y-90589278D01*
X86779860Y-90490113D01*
X86521274Y-90489888D01*
X86282286Y-90588636D01*
X86180744Y-90690000D01*
X85319222Y-90690000D01*
X85218676Y-90589278D01*
X84979860Y-90490113D01*
X84721274Y-90489888D01*
X84482286Y-90588636D01*
X84299278Y-90771324D01*
X84200113Y-91010140D01*
X84199888Y-91268726D01*
X84298636Y-91507714D01*
X84481324Y-91690722D01*
X84720140Y-91789887D01*
X84978726Y-91790112D01*
X85217714Y-91691364D01*
X85319256Y-91590000D01*
X86180778Y-91590000D01*
X86249999Y-91659342D01*
X86249999Y-95320656D01*
X86218676Y-95289278D01*
X85979860Y-95190113D01*
X85721274Y-95189888D01*
X85482286Y-95288636D01*
X85299278Y-95471324D01*
X85200113Y-95710140D01*
X85200051Y-95781544D01*
X84979860Y-95690113D01*
X84721274Y-95689888D01*
X84482286Y-95788636D01*
X84299278Y-95971324D01*
X84236603Y-96122262D01*
X83882154Y-95767812D01*
X83801364Y-95572286D01*
X83618676Y-95389278D01*
X83379860Y-95290113D01*
X83121274Y-95289888D01*
X82882286Y-95388636D01*
X82699278Y-95571324D01*
X82600113Y-95810140D01*
X82599888Y-96068726D01*
X82698636Y-96307714D01*
X82740848Y-96350000D01*
X80701543Y-96350000D01*
X77672952Y-93321408D01*
X77839757Y-92919699D01*
X77840243Y-92362744D01*
X77627555Y-91848000D01*
X77234072Y-91453830D01*
X76719699Y-91240243D01*
X76162744Y-91239757D01*
X75648000Y-91452445D01*
X75253830Y-91845928D01*
X75040243Y-92360301D01*
X75039757Y-92917256D01*
X75252445Y-93432000D01*
X75645928Y-93826170D01*
X76160301Y-94039757D01*
X76717256Y-94040243D01*
X77121620Y-93873163D01*
X79988456Y-96740000D01*
X73678456Y-103050000D01*
X73193658Y-103050000D01*
X73027555Y-102648000D01*
X72634072Y-102253830D01*
X72119699Y-102040243D01*
X71562744Y-102039757D01*
X71048000Y-102252445D01*
X70653830Y-102645928D01*
X70440243Y-103160301D01*
X70439757Y-103717256D01*
X67050000Y-103717256D01*
X67050000Y-89568726D01*
X84399888Y-89568726D01*
X84498636Y-89807714D01*
X84681324Y-89990722D01*
X84920140Y-90089887D01*
X85178726Y-90090112D01*
X85417714Y-89991364D01*
X85600722Y-89808676D01*
X85650001Y-89690000D01*
X87380778Y-89690000D01*
X87481324Y-89790722D01*
X87720140Y-89889887D01*
X87978726Y-89890112D01*
X88217714Y-89791364D01*
X88400722Y-89608676D01*
X88499887Y-89369860D01*
X88500112Y-89111274D01*
X88401364Y-88872286D01*
X88218676Y-88689278D01*
X87979860Y-88590113D01*
X87721274Y-88589888D01*
X87482286Y-88688636D01*
X87380744Y-88790000D01*
X85250000Y-88790000D01*
X85202393Y-88799470D01*
X85179860Y-88790113D01*
X84921274Y-88789888D01*
X84682286Y-88888636D01*
X84499278Y-89071324D01*
X84400113Y-89310140D01*
X84399888Y-89568726D01*
X67050000Y-89568726D01*
X67050000Y-84740000D01*
X68250000Y-84740000D01*
X68250000Y-86640000D01*
X68270517Y-86749037D01*
X68334958Y-86849181D01*
X68433283Y-86916364D01*
X68550000Y-86940000D01*
X97050000Y-86940000D01*
X97159037Y-86919483D01*
X97259181Y-86855042D01*
X97326364Y-86756717D01*
X97350000Y-86640000D01*
X97350000Y-80540000D01*
X97329483Y-80430963D01*
X97265042Y-80330819D01*
X97166717Y-80263636D01*
X97050000Y-80240000D01*
X93550000Y-80240000D01*
X93440963Y-80260517D01*
X93340819Y-80324958D01*
X93273636Y-80423283D01*
X93250000Y-80540000D01*
X93250000Y-84440000D01*
X68550000Y-84440000D01*
X68440963Y-84460517D01*
X68340819Y-84524958D01*
X68273636Y-84623283D01*
X68250000Y-84740000D01*
X67050000Y-84740000D01*
X67050000Y-78190000D01*
X71154123Y-78190000D01*
X71154123Y-79890000D01*
X71175042Y-80001173D01*
X71240745Y-80103279D01*
X71340997Y-80171778D01*
X71460000Y-80195877D01*
X73160000Y-80195877D01*
X73271173Y-80174958D01*
X73373279Y-80109255D01*
X73441778Y-80009003D01*
X73465877Y-79890000D01*
X73465877Y-78190000D01*
X73444958Y-78078827D01*
X73379255Y-77976721D01*
X73279003Y-77908222D01*
X73160000Y-77884123D01*
X71460000Y-77884123D01*
X71348827Y-77905042D01*
X71246721Y-77970745D01*
X71178222Y-78070997D01*
X71154123Y-78190000D01*
X67050000Y-78190000D01*
X67050000Y-77640000D01*
X75698456Y-77640000D01*
X75346052Y-77992404D01*
D23*
G36*
X96923000Y-86513000D02*
X68677000Y-86513000D01*
X68677000Y-84867000D01*
X93550000Y-84867000D01*
X93599410Y-84856994D01*
X93641035Y-84828553D01*
X93668315Y-84786159D01*
X93677000Y-84740000D01*
X93677000Y-80667000D01*
X96923000Y-80667000D01*
X96923000Y-86513000D01*
X96923000Y-86513000D01*
G37*
X96923000Y-86513000D02*
X68677000Y-86513000D01*
X68677000Y-84867000D01*
X93550000Y-84867000D01*
X93599410Y-84856994D01*
X93641035Y-84828553D01*
X93668315Y-84786159D01*
X93677000Y-84740000D01*
X93677000Y-80667000D01*
X96923000Y-80667000D01*
X96923000Y-86513000D01*
M02*
